# 3ds Max Wavefront OBJ Exporter v0.97b - (c)2007 guruware
# File Created: 26.02.2017 23:52:30

mtllib SM_Ceiling_01.mtl

#
# object Ceiling_01
#

v  0.0000 0.0000 0.0000
v  -2.9981 0.0000 0.0000
v  0.0000 -0.0000 -2.9906
v  -2.9981 -0.0000 -2.9906
# 4 vertices

vn 0.0000 -1.0000 0.0000
# 1 vertex normals

vt 1.4288 0.0000 0.0000
vt -0.0000 0.0000 0.0000
vt 1.4288 1.4280 0.0000
vt -0.0000 1.4280 0.0000
# 4 texture coords

g Ceiling_01
usemtl Material__2
s off
f 1/1/1 2/2/1 3/3/1 
f 2/2/1 4/4/1 3/3/1 
# 0 polygons - 2 triangles

