# 3ds Max Wavefront OBJ Exporter v0.97b - (c)2007 guruware
# File Created: 14.12.2016 23:25:13

mtllib SM_Lamp.mtl

#
# object Box001
#

v  0.8334 -0.0805 0.1497
v  -0.8334 -0.0805 0.1497
v  -0.8334 -0.0805 -0.1497
v  0.8334 -0.0805 -0.1497
v  -0.8529 -0.0010 -0.1663
v  -0.8529 -0.0010 0.1663
v  0.8529 -0.0010 0.1663
v  0.8529 -0.0010 -0.1663
v  -0.8529 -0.0930 0.1663
v  0.8529 -0.0930 0.1663
v  0.8529 -0.0930 -0.1663
v  -0.8529 -0.0930 -0.1663
v  -0.8334 -0.0930 0.1497
v  -0.8334 -0.0930 -0.1497
v  0.8334 -0.0930 -0.1497
v  0.8334 -0.0930 0.1497
# 16 vertices

vn 0.0000 -1.0000 -0.0000
vn 0.0000 1.0000 -0.0000
vn 0.0000 0.0000 1.0000
vn 1.0000 0.0000 -0.0000
vn 0.0000 0.0000 -1.0000
vn -1.0000 0.0000 -0.0000
# 6 vertex normals

vt 0.9751 0.5900 0.0000
vt 0.0020 0.5900 0.0000
vt 0.0020 0.3843 0.0000
vt 0.9751 0.3843 0.0000
vt 0.0020 0.2996 0.0000
vt 0.0020 0.0710 0.0000
vt 0.9980 0.0710 0.0000
vt 0.9980 0.2996 0.0000
vt 0.0020 0.0134 0.0000
vt 0.9980 0.0134 0.0000
vt 0.2306 0.6057 0.0000
vt 0.2306 0.6633 0.0000
vt 0.0020 0.6633 0.0000
vt 0.0020 0.6057 0.0000
vt 0.9980 0.3572 0.0000
vt 0.0020 0.3572 0.0000
vt 0.0020 0.7627 0.0000
vt 0.0020 0.7013 0.0000
vt 0.2201 0.7013 0.0000
vt 0.2201 0.7627 0.0000
vt 0.2092 0.6904 0.0000
vt 0.0129 0.6904 0.0000
vt 0.0134 0.3686 0.0000
vt 0.9866 0.3686 0.0000
vt 0.0134 0.6747 0.0000
vt 0.2191 0.6747 0.0000
vt 0.9866 0.0020 0.0000
vt 0.0134 0.0020 0.0000
vt 0.2463 0.6135 0.0000
vt 0.2463 0.6057 0.0000
vt 0.4520 0.6057 0.0000
vt 0.4520 0.6135 0.0000
vt 0.0020 0.8097 0.0000
vt 0.0020 0.8019 0.0000
vt 0.9751 0.8019 0.0000
vt 0.9751 0.8097 0.0000
vt 0.2358 0.6982 0.0000
vt 0.2358 0.6904 0.0000
vt 0.4415 0.6904 0.0000
vt 0.4415 0.6982 0.0000
vt 0.0020 0.7862 0.0000
vt 0.0020 0.7784 0.0000
vt 0.9751 0.7784 0.0000
vt 0.9751 0.7862 0.0000
# 44 texture coords

g Box001
usemtl wire_057008136
s 2
f 1/1/1 2/2/1 3/3/1 4/4/1 
s 4
f 5/5/2 6/6/2 7/7/2 8/8/2 
s 8
f 6/6/3 9/9/3 10/10/3 7/7/3 
s 16
f 7/11/4 10/12/4 11/13/4 8/14/4 
s 32
f 8/8/5 11/15/5 12/16/5 5/5/5 
s 64
f 5/17/6 12/18/6 9/19/6 6/20/6 
s off
f 13/21/1 9/19/1 12/18/1 14/22/1 
f 14/23/1 12/16/1 11/15/1 15/24/1 
f 15/25/1 11/13/1 10/12/1 16/26/1 
f 16/27/1 10/10/1 9/9/1 13/28/1 
f 2/29/4 13/30/4 14/31/4 3/32/4 
f 3/33/3 14/34/3 15/35/3 4/36/3 
f 4/37/6 15/38/6 16/39/6 1/40/6 
f 1/41/5 16/42/5 13/43/5 2/44/5 
# 14 polygons

