# 3ds Max Wavefront OBJ Exporter v0.97b - (c)2007 guruware
# File Created: 01.03.2017 11:24:26

mtllib SM_Module_DoorRoom_01.mtl

#
# object Wall_Door_01
#

v  -2.1671 2.5828 -0.0226
v  -2.1671 -0.0075 0.3133
v  -2.1671 -0.0075 -0.0226
v  -2.1671 2.5828 0.3133
v  -0.8639 2.5828 0.3133
v  -0.8639 2.5828 -0.0226
v  -0.8639 -0.0075 0.3133
v  -0.8639 -0.0075 -0.0226
v  -2.8759 2.9059 0.3133
v  -2.8759 2.9059 5.7728
v  -2.8759 -0.0075 5.7728
v  -2.8759 -0.0075 0.3133
v  -0.0997 2.9059 5.7728
v  -0.0997 2.9059 0.3133
v  -0.0997 -0.0075 0.3133
v  -0.0997 -0.0075 5.7728
# 16 vertices

vn 1.0000 0.0000 -0.0000
vn 0.0000 -1.0000 -0.0000
vn -1.0000 -0.0000 -0.0000
vn 0.0000 -0.0000 1.0000
vn 0.0000 0.0000 1.0000
vn -0.0000 -0.0000 1.0000
vn 0.0000 0.0000 -1.0000
# 7 vertex normals

vt 0.0391 0.9399 0.0000
vt 0.9980 0.8201 0.0000
vt 0.9980 0.9399 0.0000
vt 0.0391 0.8201 0.0000
vt 0.6230 0.9754 0.0000
vt 0.1583 0.9754 0.0000
vt 0.1583 0.8556 0.0000
vt 0.6230 0.8556 0.0000
vt 0.9980 0.1673 0.0000
vt 0.0391 0.1673 0.0000
vt 0.0391 0.0475 0.0000
vt 0.9980 0.0475 0.0000
vt 0.9888 0.9838 0.0000
vt 0.0153 0.9838 0.0000
vt 0.0180 0.0098 0.0000
vt 0.9915 0.0098 0.0000
vt 0.9777 0.9935 0.0000
vt 0.0042 0.9935 0.0000
vt 0.0042 0.0194 0.0000
vt 0.9777 0.0194 0.0000
vt 0.6641 0.9193 0.0000
vt 0.6045 0.0152 0.0000
vt 0.6641 0.0152 0.0000
vt 0.6045 0.9947 0.0000
vt 0.8379 0.0152 0.0000
vt 0.8379 0.9947 0.0000
vt 0.7736 0.9193 0.0000
vt 0.7736 0.0152 0.0000
vt 0.9401 0.0101 0.0000
vt 0.9401 0.9827 0.0000
vt 0.0656 0.9827 0.0000
vt 0.0656 0.0101 0.0000
# 32 texture coords

g Wall_Door_01
usemtl Material__76
s off
f 1/1/1 2/2/1 3/3/1 
f 2/2/1 1/1/1 4/4/1 
f 5/5/2 4/6/2 1/7/2 
f 5/5/2 1/7/2 6/8/2 
f 7/9/3 5/10/3 6/11/3 
f 6/11/3 8/12/3 7/9/3 
f 9/13/1 10/14/1 11/15/1 
f 9/13/1 11/15/1 12/16/1 
f 13/17/3 14/18/3 15/19/3 
f 13/17/3 15/19/3 16/20/3 
f 4/21/4 12/22/4 2/23/4 
f 12/22/5 4/21/5 9/24/5 
f 15/25/6 14/26/6 5/27/6 
f 5/27/6 7/28/6 15/25/6 
f 9/24/4 5/27/4 14/26/4 
f 5/27/4 9/24/4 4/21/4 
s 1
f 11/29/7 10/30/7 13/31/7 16/32/7 
# 1 polygons - 16 triangles

#
# object Door_01_Base
#

v  -0.7843 2.6543 -0.0416
v  -2.2329 2.6543 -0.0416
v  -2.2329 2.6543 0.0355
v  -0.7843 2.6543 0.0355
v  -0.7843 0.0000 -0.0416
v  -0.7843 0.0000 0.0355
v  -2.2329 0.0000 -0.0416
v  -2.2329 0.0000 0.0355
v  -2.2275 0.0000 -0.0495
v  -2.2275 2.6489 -0.0495
v  -2.1325 2.5538 -0.0495
v  -2.1325 0.0000 -0.0495
v  -0.7897 2.6489 -0.0495
v  -0.8847 2.5538 -0.0495
v  -0.7897 0.0000 -0.0495
v  -0.8847 0.0000 -0.0495
v  -2.1271 2.5484 -0.0069
v  -2.1271 0.0000 -0.0416
v  -2.1271 2.5484 -0.0416
v  -2.1271 0.0000 -0.0069
v  -0.8902 2.5484 -0.0069
v  -0.8902 2.5484 -0.0416
v  -0.8902 0.0000 -0.0069
v  -0.8902 0.0000 -0.0416
v  -0.9114 2.5253 -0.0069
v  -0.9114 0.0000 -0.0069
v  -2.1060 2.5253 -0.0069
v  -2.1060 0.0000 -0.0069
v  -0.9114 0.0000 0.0286
v  -0.9114 2.5253 0.0286
v  -2.1060 0.0000 0.0286
v  -2.1060 2.5253 0.0286
v  -0.9029 0.0000 0.0455
v  -0.9029 2.5397 0.0455
v  -2.1179 0.0000 0.0455
v  -2.1179 2.5397 0.0455
v  -2.2259 2.6472 0.0455
v  -0.7915 2.6474 0.0455
v  -2.2229 0.0000 0.0455
v  -0.7943 0.0000 0.0455
# 40 vertices

vn -0.0000 1.0000 0.0000
vn 0.0000 1.0000 0.0000
vn 1.0000 0.0000 0.0000
vn 1.0000 -0.0000 0.0001
vn -1.0000 0.0000 0.0000
vn -1.0000 -0.0000 0.0001
vn 0.0000 0.0000 -1.0000
vn 0.0000 -0.0000 -1.0000
vn -0.0000 0.0000 -1.0000
vn 0.0000 -1.0000 -0.0000
vn -0.0000 -1.0000 0.0000
vn -1.0000 0.0000 -0.0000
vn 0.0000 0.8258 -0.5640
vn 0.8258 0.0000 -0.5639
vn -0.8258 0.0000 -0.5639
vn -0.0000 -0.8258 -0.5639
vn 1.0000 0.0000 -0.0000
vn -0.8924 0.0000 0.4513
vn 0.8159 0.0000 0.5781
vn 0.0000 -0.7580 0.6523
vn 0.0000 0.0000 1.0000
vn -0.0001 0.8171 0.5765
vn 0.0000 0.8213 0.5705
vn 0.8118 -0.0000 0.5840
vn 0.7071 -0.0008 0.7071
vn -0.8159 -0.0000 0.5782
vn -0.7071 -0.0008 0.7071
# 27 vertex normals

vt 0.9919 0.9452 0.0000
vt 0.5762 0.9452 0.0000
vt 0.5762 0.9232 0.0000
vt 0.9919 0.9232 0.0000
vt 0.8147 0.7667 0.0000
vt 0.8366 0.0050 0.0000
vt 0.8367 0.7667 0.0000
vt 0.8145 0.0050 0.0000
vt 0.7696 0.8188 0.0000
vt 0.0078 0.8187 0.0000
vt 0.7696 0.7968 0.0000
vt 0.0078 0.7966 0.0000
vt 0.0078 0.8214 0.0000
vt 0.7680 0.8215 0.0000
vt 0.7407 0.8486 0.0000
vt 0.0078 0.8486 0.0000
vt 0.9903 0.9479 0.0000
vt 0.6050 0.9751 0.0000
vt 0.5777 0.9479 0.0000
vt 0.9631 0.9751 0.0000
vt 0.8393 0.0050 0.0000
vt 0.8665 0.7378 0.0000
vt 0.8393 0.7651 0.0000
vt 0.8665 0.0050 0.0000
vt 0.7392 0.8613 0.0000
vt 0.0078 0.8514 0.0000
vt 0.7392 0.8514 0.0000
vt 0.0078 0.8613 0.0000
vt 0.9615 0.9878 0.0000
vt 0.6065 0.9878 0.0000
vt 0.6065 0.9778 0.0000
vt 0.9615 0.9778 0.0000
vt 0.8792 0.0050 0.0000
vt 0.8792 0.7363 0.0000
vt 0.8693 0.7363 0.0000
vt 0.8693 0.0050 0.0000
vt 0.8853 0.7296 0.0000
vt 0.8853 0.0050 0.0000
vt 0.7325 0.8673 0.0000
vt 0.0078 0.8673 0.0000
vt 0.9554 0.9944 0.0000
vt 0.6126 0.9944 0.0000
vt 0.7739 0.0050 0.0000
vt 0.7739 0.7296 0.0000
vt 0.7637 0.7296 0.0000
vt 0.7637 0.0050 0.0000
vt 0.7325 0.7464 0.0000
vt 0.0078 0.7566 0.0000
vt 0.0078 0.7464 0.0000
vt 0.7325 0.7566 0.0000
vt 0.9554 0.8826 0.0000
vt 0.6126 0.8826 0.0000
vt 0.6126 0.8724 0.0000
vt 0.9554 0.8724 0.0000
vt 0.7793 0.0050 0.0000
vt 0.7793 0.7338 0.0000
vt 0.0078 0.7624 0.0000
vt 0.7367 0.7624 0.0000
vt 0.9579 0.8889 0.0000
vt 0.6092 0.8889 0.0000
vt 0.5782 0.9197 0.0000
vt 0.9898 0.9197 0.0000
vt 0.0078 0.7926 0.0000
vt 0.7675 0.7934 0.0000
vt 0.8105 0.0050 0.0000
vt 0.8112 0.7647 0.0000
# 66 texture coords

g Door_01_Base
usemtl Material__0
s off
f 17/33/8 18/34/8 19/35/8 
f 17/33/9 19/35/9 20/36/9 
f 20/37/10 21/38/10 17/39/10 
f 21/38/11 20/37/11 22/40/11 
f 18/41/12 23/42/12 19/43/12 
f 19/43/13 23/42/13 24/44/13 
f 25/45/14 26/46/14 27/47/14 
f 25/45/14 27/47/14 28/48/14 
f 29/49/14 27/50/14 26/51/14 
f 27/50/15 29/49/15 30/52/15 
f 31/53/16 30/54/16 29/55/16 
f 30/54/14 31/53/14 32/56/14 
f 33/57/10 34/58/10 35/59/10 
f 34/58/10 33/57/10 36/60/10 
f 37/61/17 33/62/17 35/63/17 
f 37/61/18 35/63/18 38/64/18 
f 39/65/19 37/66/19 38/67/19 
f 38/67/19 40/68/19 39/65/19 
f 18/34/20 17/33/20 29/49/20 
f 18/34/20 29/49/20 26/51/20 
f 29/55/21 21/38/21 31/53/21 
f 21/38/21 29/55/21 17/39/21 
f 38/67/22 32/56/22 40/68/22 
f 32/56/22 38/67/22 30/54/22 
f 38/64/23 35/63/23 27/50/23 
f 38/64/23 27/50/23 30/52/23 
f 28/48/21 27/47/21 35/59/21 
f 35/59/21 34/58/21 28/48/21 
f 26/46/22 23/42/22 18/41/22 
f 23/42/22 26/46/22 25/45/22 
f 39/65/16 41/69/16 37/66/16 
f 41/69/16 39/65/16 42/70/16 
f 36/60/14 33/57/14 43/71/14 
f 36/60/14 43/71/14 44/72/14 
f 33/62/15 37/61/15 41/73/15 
f 33/62/15 41/73/15 43/74/15 
f 45/75/19 46/76/19 41/77/19 
f 41/77/19 42/78/19 45/75/19 
f 43/79/10 47/80/10 44/81/10 
f 47/80/24 43/79/24 48/82/24 
f 46/83/17 48/84/17 43/85/17 
f 46/83/17 43/85/17 41/86/17 
f 49/87/25 50/88/25 46/76/25 
f 46/76/25 45/75/25 49/87/25 
f 48/82/26 51/89/26 47/80/26 
f 51/89/26 48/82/26 52/90/26 
f 50/91/27 52/92/27 48/84/27 
f 50/91/27 48/84/27 46/83/27 
f 53/93/28 50/91/28 54/94/28 
f 50/91/28 53/93/28 52/92/28 
f 52/90/28 55/95/28 51/89/28 
f 55/95/28 52/90/28 53/96/28 
f 56/97/28 54/98/28 50/88/28 
f 50/88/28 49/87/28 56/97/28 
f 54/94/29 19/35/29 53/93/29 
f 20/36/30 19/35/30 54/94/30 
f 54/98/31 22/40/31 20/37/31 
f 22/40/32 54/98/32 56/97/32 
f 19/43/33 24/44/33 53/96/33 
f 53/96/34 24/44/34 55/95/34 
# 0 polygons - 60 triangles

#
# object Ceiling
#

v  -2.8759 2.9059 5.7728
v  -2.8759 2.9059 0.3133
v  -0.0997 2.9059 5.7728
v  -0.0997 2.9059 0.3133
# 4 vertices

vn 0.0000 -1.0000 -0.0000
# 1 vertex normals

vt 0.9900 0.7464 0.0000
vt 0.0100 0.7464 0.0000
vt 0.9900 0.2481 0.0000
vt 0.0100 0.2481 0.0000
# 4 texture coords

g Ceiling
usemtl Material__52
s off
f 57/99/35 58/100/35 59/101/35 
f 59/101/35 58/100/35 60/102/35 
# 0 polygons - 2 triangles

#
# object Walli
#

v  0.0000 3.0002 0.0000
v  0.0000 1.1243 0.0000
v  -0.7589 2.6425 0.0000
v  -0.7589 1.1243 0.0000
v  -2.2540 2.6425 0.0000
v  -3.0002 1.1243 0.0000
v  -3.0002 3.0002 0.0000
v  -2.2540 1.1243 0.0000
v  -0.8113 1.1243 0.0000
v  -0.8113 2.6425 0.0000
v  -2.2063 1.1243 0.0000
v  -2.2063 2.6425 0.0000
# 12 vertices

vn -0.0000 0.0000 -1.0000
vn 0.0000 0.0000 -1.0000
# 2 vertex normals

vt 0.0001 0.0000 0.0000
vt 0.0001 0.9998 0.0000
vt 0.2530 0.1906 0.0000
vt 0.2530 0.9998 0.0000
vt 0.7513 0.1906 0.0000
vt 1.0000 0.9998 0.0000
vt 1.0000 0.0000 0.0000
vt 0.7513 0.9998 0.0000
vt 0.2881 0.9995 0.0000
vt 0.2881 0.1909 0.0000
vt 0.7284 0.9985 0.0000
vt 0.7284 0.1905 0.0000
# 12 texture coords

g Walli
usemtl Material__55
s off
f 61/103/36 62/104/36 63/105/36 
f 63/105/36 62/104/36 64/106/36 
f 65/107/36 66/108/36 67/109/36 
f 66/108/36 65/107/36 68/110/36 
f 67/109/36 63/105/36 65/107/36 
f 63/105/36 67/109/36 61/103/36 
f 69/111/37 70/112/37 63/105/37 
f 63/105/37 64/106/37 69/111/37 
f 65/107/37 71/113/37 68/110/37 
f 71/113/36 65/107/36 72/114/36 
# 0 polygons - 10 triangles

#
# object Tile02
#

v  -2.2606 1.1243 -0.0072
v  -2.2606 0.0024 -0.0072
v  -3.0002 1.1243 -0.0072
v  -3.0002 0.0024 -0.0072
v  0.0000 1.1243 0.0000
v  0.0000 0.0024 -0.0000
v  0.0000 1.1243 -0.0072
v  0.0000 0.0024 -0.0072
v  -0.7531 1.1243 -0.0072
v  -0.7589 1.1243 0.0000
v  -3.0002 0.0024 0.0000
v  -3.0002 1.1243 0.0000
v  -0.7525 -0.0070 -0.0072
v  -0.7531 0.0024 -0.0072
v  0.0000 -0.0070 -0.0072
v  -3.0002 -0.0070 -0.0072
v  -3.0002 -0.0070 0.0000
v  0.0000 -0.0070 -0.0000
v  -2.2540 1.1243 0.0000
v  -2.2605 -0.0073 -0.0072
v  -0.8055 1.1243 -0.0072
v  -0.8113 1.1243 0.0000
v  -0.8049 -0.0070 -0.0072
v  -0.8055 0.0024 -0.0072
v  -2.2129 1.1243 -0.0072
v  -2.2129 0.0024 -0.0072
v  -2.2063 1.1243 0.0000
v  -2.2128 -0.0073 -0.0072
# 28 vertices

vn -0.0000 0.0000 -1.0000
vn 1.0000 -0.0000 -0.0000
vn 0.0000 1.0000 -0.0000
vn -1.0000 0.0000 -0.0000
vn -0.0000 -0.0000 -1.0000
vn 1.0000 0.0000 -0.0000
vn 0.0000 0.0000 -1.0000
# 7 vertex normals

vt 0.4973 0.7513 0.0000
vt 0.4973 0.0000 0.0000
vt 0.0000 0.7513 0.0000
vt 0.0000 0.0000 0.0000
vt 1.9998 0.7513 0.0000
vt 1.9998 0.0000 0.0000
vt 1.9921 0.7513 0.0000
vt 1.9921 0.0000 0.0000
vt 1.4939 0.7441 0.0000
vt 1.9998 0.7441 0.0000
vt 1.4939 0.7513 0.0000
vt 0.0000 0.7439 0.0000
vt 0.6680 0.7518 0.0000
vt -0.0000 0.7515 0.0000
vt 0.6680 0.7436 0.0000
vt 1.4939 0.0000 0.0000
vt 0.4973 0.7441 0.0000
vt 1.4517 0.7434 0.0000
vt 1.4517 0.7507 0.0000
vt 1.4522 0.0000 0.0000
vt 1.4517 0.7511 0.0000
vt 0.4658 0.7507 0.0000
vt 0.4658 -0.0002 0.0000
vt 0.5233 0.7437 0.0000
vt 0.5234 0.7515 0.0000
# 25 texture coords

g Tile02
usemtl Material__7
s off
f 73/115/38 74/116/38 75/117/38 
f 75/117/38 74/116/38 76/118/38 
f 77/119/39 78/120/39 79/121/39 
f 79/121/39 78/120/39 80/122/39 
f 81/123/40 77/119/40 79/124/40 
f 77/119/40 81/123/40 82/125/40 
f 75/126/41 83/127/41 84/128/41 
f 83/127/41 75/126/41 76/129/41 
f 80/120/42 85/130/42 86/130/42 
f 85/130/38 80/120/38 87/120/38 
f 83/127/41 88/129/41 89/127/41 
f 88/129/41 83/127/41 76/129/41 
f 80/122/43 78/120/43 87/122/43 
f 78/120/43 90/120/43 87/122/43 
f 81/125/38 80/120/38 86/130/38 
f 80/120/38 81/125/38 79/119/38 
f 84/128/40 73/131/40 75/126/40 
f 73/131/40 84/128/40 91/115/40 
f 74/116/38 88/118/38 76/118/38 
f 88/118/42 74/116/42 92/116/42 
f 81/123/40 93/132/40 82/125/40 
f 82/125/40 93/132/40 94/133/40 
f 85/130/44 95/130/44 86/130/44 
f 96/130/44 86/130/44 95/130/44 
f 96/134/44 93/135/44 81/125/44 
f 81/125/44 86/130/44 96/134/44 
f 97/136/44 74/116/44 73/115/44 
f 74/116/44 97/136/44 98/137/44 
f 91/115/40 97/138/40 73/131/40 
f 97/138/40 91/115/40 99/139/40 
f 98/116/44 92/116/44 74/116/44 
f 92/116/44 98/116/44 100/116/44 
# 0 polygons - 32 triangles

#
# object Tile01
#

v  -0.8639 -0.0075 0.3133
v  -0.0997 -0.0075 5.7728
v  -0.0997 -0.0075 0.3133
v  -0.8639 -0.0075 -0.0226
v  -2.1671 -0.0075 -0.0226
v  -2.1671 -0.0075 0.3133
v  -2.8759 -0.0075 0.3133
v  -2.8759 -0.0075 5.7728
# 8 vertices

vn 0.0000 1.0000 -0.0000
# 1 vertex normals

vt 0.8571 0.0006 0.0000
vt -1.5285 -0.3333 0.0000
vt 0.8571 -0.3333 0.0000
vt 1.0039 0.0006 0.0000
vt 1.0039 0.5700 0.0000
vt 0.8571 0.5700 0.0000
vt 0.8571 0.8797 0.0000
vt -1.5285 0.8797 0.0000
# 8 texture coords

g Tile01
usemtl Material__2
s off
f 101/140/45 102/141/45 103/142/45 
f 104/143/45 105/144/45 106/145/45 
f 104/143/45 106/145/45 101/140/45 
f 106/145/45 107/146/45 108/147/45 
f 106/145/45 108/147/45 101/140/45 
f 101/140/45 108/147/45 102/141/45 
# 0 polygons - 6 triangles

