# 3ds Max Wavefront OBJ Exporter v0.97b - (c)2007 guruware
# File Created: 26.02.2017 23:31:19

mtllib SM_Wall_01.mtl

#
# object Wall_01
#

v  -3.0034 1.1285 -0.0072
v  -0.0060 1.1285 -0.0072
v  -0.0060 0.0077 -0.0072
v  -3.0034 0.0077 -0.0072
v  -0.0060 1.1285 -0.0000
v  -0.0060 0.0077 -0.0000
v  -3.0034 1.1285 -0.0000
v  -3.0034 0.0077 -0.0000
v  -0.0060 -0.0017 -0.0072
v  -3.0034 -0.0017 -0.0072
v  -3.0034 -0.0017 -0.0000
v  -0.0060 -0.0017 -0.0000
# 12 vertices

vn 0.0000 0.0000 -1.0000
vn -0.0000 0.0000 -1.0000
vn 1.0000 0.0000 -0.0000
vn 0.0000 1.0000 -0.0000
vn -1.0000 0.0000 -0.0000
# 5 vertex normals

vt 0.0000 0.7513 0.0000
vt 1.9998 0.7513 0.0000
vt 1.9998 0.0000 0.0000
vt 0.0000 0.0000 0.0000
vt 1.9921 0.7513 0.0000
vt 1.9921 0.0000 0.0000
vt 0.0000 0.7441 0.0000
vt 1.9998 0.7441 0.0000
vt 0.0091 0.0000 0.0000
vt 0.0091 0.7513 0.0000
# 10 texture coords

g Wall_01
usemtl Material__7
s off
f 1/1/1 2/2/2 3/3/2 
f 1/1/1 3/3/2 4/4/1 
f 5/2/3 6/3/3 2/5/3 
f 2/5/3 6/3/3 3/6/3 
f 1/7/4 5/2/4 2/8/4 
f 5/2/4 1/7/4 7/1/4 
f 1/1/5 8/9/5 7/10/5 
f 8/9/5 1/1/5 4/4/5 
f 9/3/2 10/4/1 3/3/2 
f 4/4/1 3/3/2 10/4/1 
f 8/9/5 10/4/5 11/9/5 
f 10/4/5 8/9/5 4/4/5 
f 3/6/3 6/3/3 9/6/3 
f 6/3/3 12/3/3 9/6/3 
# 0 polygons - 14 triangles

#
# object Object001
#

v  -0.0060 3.0027 -0.0000
v  -3.0034 1.1285 -0.0000
v  -3.0034 3.0027 -0.0000
v  -0.0060 1.1285 -0.0000
# 4 vertices

vn -0.0000 0.0000 -1.0000
# 1 vertex normals

vt 0.0001 0.0000 0.0000
vt 1.0000 0.9998 0.0000
vt 1.0000 0.0000 0.0000
vt 0.0001 0.9998 0.0000
# 4 texture coords

g Object001
usemtl 01___Default
s off
f 13/11/6 14/12/6 15/13/6 
f 14/12/6 13/11/6 16/14/6 
# 0 polygons - 2 triangles

